<?xml version="1.0" encoding="UTF-8"?><svg id="Layer_1" xmlns="http://www.w3.org/2000/svg" width="367.85" height="101.69" viewBox="0 0 367.85 101.69"><defs><style>.cls-1{fill:#00b0f3;}.cls-2{fill:#696f70;}.cls-3{fill:#7a7a7a;}</style></defs><g><g><path class="cls-3" d="M155.51,26.16c1.22,.03,2.46,.09,3.71,.19,1.25,.1,2.5,.26,3.74,.49l-.19,1.8c-1.1-.07-2.27-.14-3.52-.19-1.25-.05-2.46-.08-3.63-.08-1.02,0-1.9,.04-2.64,.11-.74,.08-1.34,.25-1.82,.52-.47,.28-.82,.72-1.03,1.35-.21,.62-.32,1.5-.32,2.62,0,1.6,.27,2.73,.82,3.39,.55,.66,1.46,1.12,2.73,1.37l5.43,1.12c1.95,.4,3.3,1.16,4.06,2.28,.76,1.12,1.14,2.72,1.14,4.79,0,1.52-.18,2.74-.52,3.65-.35,.91-.87,1.6-1.55,2.08-.69,.47-1.55,.8-2.6,.97-1.05,.17-2.28,.26-3.71,.26-.9,0-2.01-.04-3.33-.11-1.32-.08-2.83-.25-4.53-.52l.19-1.8c1.27,.05,2.34,.09,3.2,.13s1.64,.06,2.34,.07c.7,.01,1.43,.02,2.21,.02,1.45-.02,2.6-.15,3.44-.37,.85-.23,1.45-.67,1.82-1.35,.36-.67,.54-1.7,.54-3.07,0-1.12-.12-2-.36-2.64s-.62-1.12-1.16-1.46c-.54-.34-1.23-.58-2.08-.73l-5.5-1.16c-1.85-.37-3.15-1.13-3.91-2.27-.76-1.14-1.14-2.7-1.14-4.7,0-1.52,.17-2.74,.51-3.65,.34-.91,.84-1.59,1.5-2.04,.66-.45,1.5-.74,2.53-.88,1.02-.14,2.23-.21,3.63-.21Z"/><path class="cls-3" d="M172.72,30.45h3.15c1.06,0,2.12,.02,3.17,.05,1.05,.03,2.07,.08,3.07,.14l-.1,1.62h-8.94c-.7,0-1.24,.19-1.61,.57s-.56,.94-.56,1.69v13.87c0,.74,.19,1.31,.56,1.7s.91,.59,1.61,.59h8.94l.1,1.59c-1,.06-2.02,.11-3.07,.13-1.05,.02-2.11,.04-3.17,.05s-2.11,.02-3.15,.02c-1.17,0-2.11-.33-2.82-1-.71-.67-1.07-1.54-1.07-2.63v-14.77c0-1.1,.36-1.98,1.07-2.64,.71-.66,1.65-.99,2.82-.99Zm-3.34,9.48h11.36v1.69h-11.36v-1.69Z"/><path class="cls-3" d="M188.72,30.48v17.92c0,.72,.2,1.28,.61,1.67,.4,.39,.98,.59,1.72,.59h8.18l.06,1.62c-1.4,.08-2.82,.14-4.26,.16-1.44,.02-2.89,.03-4.33,.03s-2.4-.37-3.05-1.1c-.66-.73-.99-1.64-.99-2.72V30.48h2.07Z"/><path class="cls-3" d="M206.73,30.45h3.15c1.06,0,2.12,.02,3.17,.05,1.05,.03,2.07,.08,3.07,.14l-.1,1.62h-8.94c-.7,0-1.24,.19-1.61,.57s-.56,.94-.56,1.69v13.87c0,.74,.19,1.31,.56,1.7s.91,.59,1.61,.59h8.94l.1,1.59c-1,.06-2.02,.11-3.07,.13-1.05,.02-2.11,.04-3.17,.05s-2.11,.02-3.15,.02c-1.17,0-2.11-.33-2.82-1-.71-.67-1.07-1.54-1.07-2.63v-14.77c0-1.1,.36-1.98,1.07-2.64,.71-.66,1.65-.99,2.82-.99Zm-3.34,9.48h11.36v1.69h-11.36v-1.69Z"/><path class="cls-3" d="M228.18,30.1c.89,0,1.66,.02,2.31,.06,.65,.04,1.25,.11,1.8,.19,.55,.09,1.12,.2,1.72,.35l-.25,1.59c-.64-.08-1.21-.15-1.73-.19-.52-.04-1.08-.08-1.69-.11s-1.32-.05-2.15-.05c-1.57,0-2.81,.3-3.72,.91-.91,.6-1.56,1.6-1.94,2.97-.38,1.38-.57,3.26-.57,5.63s.19,4.25,.57,5.63c.38,1.38,1.03,2.37,1.94,2.97,.91,.6,2.15,.91,3.72,.91,1.32,0,2.43-.03,3.34-.1,.91-.06,1.8-.16,2.67-.29l.25,1.56c-.89,.23-1.81,.4-2.75,.51-.94,.11-2.12,.16-3.52,.16-2.06,0-3.71-.37-4.95-1.1-1.24-.73-2.14-1.93-2.69-3.58-.55-1.65-.83-3.88-.83-6.68s.28-5.03,.83-6.68c.55-1.66,1.45-2.85,2.69-3.58,1.24-.73,2.89-1.1,4.95-1.1Z"/><path class="cls-3" d="M253.16,30.48v1.85h-16.71v-1.85h16.71Zm-7.32,0v21.96h-2.1V30.48h2.1Z"/><path class="cls-3" d="M266.3,26.61v25.83h-2.43V26.61h2.43Zm13.44,10.93v2.13h-13.74v-2.13h13.74Zm2.02-10.93v25.83h-2.43V26.61h2.43Z"/><path class="cls-3" d="M295.84,30.07c1.57,0,2.9,.2,3.98,.59,1.08,.39,1.95,1.03,2.61,1.91,.66,.88,1.14,2.05,1.43,3.52,.3,1.46,.45,3.26,.45,5.38s-.15,3.91-.45,5.38c-.3,1.46-.78,2.64-1.43,3.52s-1.53,1.52-2.61,1.91-2.41,.59-3.98,.59-2.9-.2-3.98-.59c-1.08-.39-1.95-1.03-2.61-1.91-.66-.88-1.14-2.05-1.45-3.52-.31-1.46-.46-3.26-.46-5.38s.15-3.92,.46-5.38c.31-1.46,.79-2.64,1.45-3.52,.66-.88,1.53-1.52,2.61-1.91,1.08-.39,2.41-.59,3.98-.59Zm0,1.88c-1.57,0-2.82,.3-3.74,.91s-1.57,1.6-1.96,2.97c-.38,1.38-.57,3.26-.57,5.63s.19,4.25,.57,5.63c.38,1.38,1.03,2.37,1.96,2.97s2.17,.91,3.74,.91,2.81-.3,3.72-.91,1.57-1.6,1.96-2.97,.59-3.26,.59-5.63-.2-4.25-.59-5.63c-.39-1.38-1.05-2.37-1.96-2.97s-2.15-.91-3.72-.91Z"/><path class="cls-3" d="M329.76,30.48c.59,0,.89,.31,.89,.92l.95,21.03h-2.1l-.86-20.21h-.7l-5.73,17.22c-.13,.47-.44,.7-.92,.7h-2.1c-.49,0-.81-.23-.96-.7l-5.7-17.22h-.7l-.83,20.21h-2.1l.89-21.03c.04-.62,.36-.92,.95-.92h2.51c.47,0,.76,.24,.89,.73l4.8,14.32c.19,.49,.35,.98,.49,1.48s.29,1,.46,1.51h.67c.15-.51,.3-1.01,.45-1.51,.15-.5,.31-1.01,.48-1.54l4.8-14.26c.13-.49,.44-.73,.92-.73h2.51Z"/><path class="cls-3" d="M340.74,30.45h3.15c1.06,0,2.12,.02,3.17,.05,1.05,.03,2.07,.08,3.07,.14l-.1,1.62h-8.94c-.7,0-1.24,.19-1.61,.57-.37,.38-.56,.94-.56,1.69v13.87c0,.74,.19,1.31,.56,1.7,.37,.39,.91,.59,1.61,.59h8.94l.1,1.59c-1,.06-2.02,.11-3.07,.13-1.05,.02-2.11,.04-3.17,.05s-2.11,.02-3.15,.02c-1.17,0-2.11-.33-2.82-1-.71-.67-1.07-1.54-1.07-2.63v-14.77c0-1.1,.35-1.98,1.07-2.64,.71-.66,1.65-.99,2.82-.99Zm-3.34,9.48h11.36v1.69h-11.36v-1.69Z"/><path class="cls-3" d="M360.63,30.1c1.04,.02,2.09,.07,3.15,.16,1.06,.09,2.12,.22,3.18,.41l-.16,1.53c-.93-.06-1.93-.12-2.99-.16-1.06-.04-2.09-.06-3.09-.06-.87,0-1.62,.03-2.24,.1-.63,.06-1.14,.21-1.54,.45s-.69,.62-.87,1.15c-.18,.53-.27,1.27-.27,2.23,0,1.36,.23,2.32,.7,2.88,.47,.56,1.24,.95,2.32,1.16l4.61,.95c1.66,.34,2.81,.99,3.45,1.94s.97,2.31,.97,4.07c0,1.29-.15,2.33-.44,3.1-.3,.78-.74,1.36-1.32,1.77-.58,.4-1.32,.68-2.21,.83-.89,.15-1.94,.22-3.15,.22-.76,0-1.71-.03-2.83-.1-1.12-.06-2.41-.21-3.85-.44l.16-1.53c1.08,.04,1.99,.08,2.72,.11,.73,.03,1.39,.05,1.99,.06s1.22,.02,1.88,.02c1.23-.02,2.21-.13,2.93-.32s1.24-.57,1.54-1.15c.31-.57,.46-1.44,.46-2.61,0-.96-.1-1.7-.3-2.24-.2-.54-.53-.95-.99-1.24-.46-.29-1.05-.49-1.77-.62l-4.68-.99c-1.57-.32-2.68-.96-3.33-1.93-.65-.96-.97-2.3-.97-3.99,0-1.29,.14-2.33,.43-3.1,.29-.78,.71-1.35,1.27-1.73,.56-.38,1.28-.63,2.15-.75,.87-.12,1.9-.17,3.09-.17Z"/></g><g><path class="cls-1" d="M148.39,63.59c.86,0,1.56,.1,2.08,.29,.53,.2,.91,.53,1.15,1.01,.24,.48,.36,1.15,.36,2.02,0,.65-.07,1.18-.22,1.6-.15,.42-.38,.74-.69,.97-.31,.22-.72,.37-1.23,.45v.07c.19,.06,.38,.16,.55,.3,.18,.15,.34,.33,.49,.55,.15,.22,.26,.49,.34,.79l1.18,3.68h-1.18l-1.11-3.64c-.16-.48-.37-.82-.65-1.03-.27-.2-.62-.3-1.03-.3-.66,0-1.25,0-1.76,0s-.93-.01-1.27-.03-.59-.02-.76-.03l.05-.89h3.64c.63-.01,1.12-.09,1.49-.23,.36-.14,.62-.39,.78-.74,.16-.35,.24-.84,.24-1.47s-.08-1.13-.24-1.48c-.16-.35-.42-.59-.78-.72-.36-.13-.86-.2-1.49-.2-.9,0-1.67,0-2.32,0-.65,0-1.09,.01-1.31,.03l-.24-.86c.41-.04,.8-.08,1.16-.1,.36-.02,.75-.04,1.18-.04s.95,0,1.55,0Zm-2.81,.15v11.59h-1.09v-11.59h1.09Z"/><path class="cls-1" d="M170.28,63.73h1.66c.56,0,1.12,0,1.67,.03,.55,.02,1.09,.04,1.62,.08l-.05,.86h-4.72c-.37,0-.65,.1-.85,.3-.2,.2-.29,.5-.29,.89v7.32c0,.39,.1,.69,.29,.9,.2,.21,.48,.31,.85,.31h4.72l.05,.84c-.53,.03-1.07,.06-1.62,.07-.55,.01-1.11,.02-1.67,.03-.56,0-1.11,0-1.66,0-.62,0-1.11-.18-1.49-.53-.37-.35-.56-.82-.56-1.39v-7.8c0-.58,.19-1.05,.56-1.39,.38-.35,.87-.52,1.49-.52Zm-1.76,5.01h6v.89h-6v-.89Z"/><path class="cls-1" d="M195.44,63.74c.1,0,.19,.03,.28,.08s.14,.13,.16,.24l3.88,11.27h-1.14l-3.26-9.78c-.05-.16-.1-.32-.15-.48-.06-.16-.11-.32-.15-.46h-.49c-.05,.15-.09,.3-.14,.46-.05,.16-.1,.32-.16,.48l-3.26,9.78h-1.14l3.88-11.27c.03-.1,.09-.18,.17-.24,.08-.06,.17-.08,.27-.08h1.26Zm2.3,6.79v.96h-5.88v-.96h5.88Z"/><path class="cls-1" d="M215.7,63.74v9.46c0,.38,.11,.67,.32,.88,.21,.21,.52,.31,.91,.31h4.32l.03,.86c-.74,.05-1.49,.07-2.25,.08-.76,.01-1.52,.02-2.28,.02s-1.27-.19-1.61-.58c-.35-.39-.52-.87-.52-1.44v-9.59h1.09Z"/><path class="cls-1" d="M247,63.73h1.66c.56,0,1.12,0,1.67,.03,.55,.02,1.09,.04,1.62,.08l-.05,.86h-4.72c-.37,0-.65,.1-.85,.3-.2,.2-.29,.5-.29,.89v7.32c0,.39,.1,.69,.29,.9,.2,.21,.48,.31,.85,.31h4.72l.05,.84c-.53,.03-1.07,.06-1.62,.07-.55,.01-1.11,.02-1.67,.03-.56,0-1.11,0-1.66,0-.62,0-1.11-.18-1.49-.53-.37-.35-.56-.82-.56-1.39v-7.8c0-.58,.19-1.05,.56-1.39,.38-.35,.87-.52,1.49-.52Zm-1.76,5.01h6v.89h-6v-.89Z"/><path class="cls-1" d="M271.02,63.54c.55,.01,1.1,.04,1.66,.08,.56,.04,1.12,.12,1.68,.22l-.09,.81c-.49-.03-1.02-.06-1.58-.08-.56-.02-1.1-.03-1.63-.03-.46,0-.85,.02-1.18,.05-.33,.03-.6,.11-.82,.24-.21,.12-.37,.32-.46,.6-.09,.28-.14,.67-.14,1.18,0,.72,.12,1.22,.37,1.52,.24,.3,.66,.5,1.23,.61l2.44,.5c.87,.18,1.48,.52,1.82,1.03s.51,1.22,.51,2.15c0,.68-.08,1.23-.24,1.64-.16,.41-.39,.72-.7,.93-.31,.21-.7,.36-1.17,.44-.47,.08-1.02,.12-1.66,.12-.4,0-.9-.02-1.49-.05s-1.27-.11-2.03-.24l.08-.81c.57,.02,1.05,.04,1.43,.06,.39,.02,.74,.03,1.05,.03s.64,0,.99,0c.65-.01,1.16-.07,1.55-.17s.65-.3,.81-.6c.16-.3,.24-.76,.24-1.38,0-.5-.05-.9-.16-1.18-.1-.28-.28-.5-.52-.65-.24-.15-.55-.26-.93-.33l-2.47-.52c-.83-.17-1.42-.51-1.76-1.02s-.51-1.21-.51-2.11c0-.68,.08-1.23,.23-1.64,.15-.41,.38-.71,.67-.91s.67-.33,1.13-.39,1-.09,1.63-.09Z"/><path class="cls-1" d="M298.52,63.74v.98h-8.82v-.98h8.82Zm-3.86,0v11.59h-1.11v-11.59h1.11Z"/><path class="cls-1" d="M317.87,63.74c.1,0,.19,.03,.28,.08,.08,.06,.14,.13,.16,.24l3.88,11.27h-1.14l-3.26-9.78c-.04-.16-.1-.32-.15-.48-.06-.16-.11-.32-.15-.46h-.49c-.05,.15-.09,.3-.14,.46-.05,.16-.1,.32-.16,.48l-3.26,9.78h-1.14l3.88-11.27c.03-.1,.09-.18,.17-.24s.17-.08,.27-.08h1.26Zm2.3,6.79v.96h-5.88v-.96h5.88Z"/><path class="cls-1" d="M344.77,63.74v.98h-8.82v-.98h8.82Zm-3.86,0v11.59h-1.11v-11.59h1.11Z"/><path class="cls-1" d="M361.84,63.73h1.66c.56,0,1.12,0,1.67,.03,.55,.02,1.09,.04,1.62,.08l-.05,.86h-4.72c-.37,0-.65,.1-.85,.3s-.29,.5-.29,.89v7.32c0,.39,.1,.69,.29,.9s.48,.31,.85,.31h4.72l.05,.84c-.53,.03-1.07,.06-1.62,.07-.55,.01-1.11,.02-1.67,.03s-1.11,0-1.66,0c-.62,0-1.11-.18-1.49-.53-.38-.35-.56-.82-.56-1.39v-7.8c0-.58,.19-1.05,.56-1.39,.37-.35,.87-.52,1.49-.52Zm-1.76,5.01h6v.89h-6v-.89Z"/></g></g><g id="Icon"><polygon class="cls-1" points="43.73 43.73 43.73 83.96 60.41 83.96 60.41 30.13 43.73 43.73"/><polygon class="cls-1" points="63.21 20.04 63.21 83.54 76.95 83.54 76.95 7.71 63.21 20.04"/><polygon class="cls-1" points="79.47 0 90.68 12.33 90.68 82.55 79.61 82.55 79.47 0"/><polygon class="cls-1" points="93.21 19.62 101.76 31.96 101.76 82.13 93.35 82.13 93.21 19.62"/><polygon class="cls-1" points="104.28 39.67 109.47 50.6 109.47 81.99 104.14 81.99 104.28 39.67"/><polygon class="cls-1" points="112.13 58.31 115.91 68.4 115.91 81.85 111.99 81.85 112.13 58.31"/><path class="cls-2" d="M29.85,101.62c.47,.77,9.18-4.54,18.22-8.69,4.85-2.23,9.91-3.82,13.6-4.63,9.11-2,19.2-4.29,29.29-4.63,14.04-.46,27.06,1.56,28.24,1.75,31.42,4.99,48.81,14.16,49.2,13.25,.47-1.11-24.38-16.99-60.97-22.92-1.9-.31-6.07-.95-11.56-1.47-31.06-2.94-56.29,2.64-69.8,7.36C14.88,85.55-.09,93.1,0,93.63c.09,.52,13.61-.24,22.43,1.96,4.25,1.06,7.3,5.82,7.43,6.03Z"/></g></svg>