<?xml version="1.0" encoding="UTF-8"?><svg id="Layer_2" xmlns="http://www.w3.org/2000/svg" width="189.82" height="48.64" viewBox="0 0 189.82 48.64"><defs><style>.cls-1{font-size:16.21px;}.cls-2,.cls-3{fill:#00b0f3;}.cls-4,.cls-5{fill:#696f70;}.cls-5,.cls-3{font-family:Exo2-Light, 'Exo 2';}.cls-6{font-size:19.07px;}.cls-3{font-size:8.56px;}</style></defs><g id="Layer_1-2"><g><text class="cls-5" transform="translate(74.16 25.17)"><tspan class="cls-6" x="0" y="0">S</tspan><tspan class="cls-1" x="10.66" y="0">ELECT </tspan><tspan class="cls-6" x="58.71" y="0">H</tspan><tspan class="cls-1" x="71.37" y="0">OMES</tspan></text><text class="cls-3" transform="translate(72.85 36.84)"><tspan x="0" y="0" xml:space="preserve">R E A L  E S T A T E</tspan></text><g><polygon class="cls-2" points="20.92 20.92 20.92 40.15 28.89 40.15 28.89 14.41 20.92 20.92"/><g><polygon class="cls-2" points="30.23 9.59 30.23 39.95 36.8 39.95 36.8 3.69 30.23 9.59"/><polygon class="cls-2" points="38.01 0 43.37 5.9 43.37 39.48 38.08 39.48 38.01 0"/><polygon class="cls-2" points="44.58 9.39 48.67 15.28 48.67 39.28 44.65 39.28 44.58 9.39"/><polygon class="cls-2" points="49.88 18.97 52.36 24.2 52.36 39.22 49.81 39.22 49.88 18.97"/><polygon class="cls-2" points="53.63 27.89 55.44 32.71 55.44 39.15 53.56 39.15 53.63 27.89"/><path class="cls-4" d="M14.28,48.6c.23,.37,4.39-2.17,8.71-4.16,2.32-1.07,4.74-1.82,6.5-2.21,4.36-.96,9.18-2.05,14.01-2.21,6.71-.22,12.94,.75,13.51,.84,15.03,2.39,23.34,6.77,23.53,6.33,.23-.53-11.66-8.12-29.16-10.96-.91-.15-2.9-.46-5.53-.7-14.86-1.41-26.92,1.26-33.38,3.52C7.11,40.92-.04,44.53,0,44.78c.04,.25,6.51-.11,10.73,.94,2.03,.51,3.49,2.78,3.55,2.88Z"/></g></g></g></g></svg>